{
    "asset" : {
        "generator" : "Khronos glTF Blender I/O v1.3.48",
        "version" : "2.0"
    },
    "scene" : 0,
    "scenes" : [
        {
            "name" : "Scene",
            "nodes" : [
                0
            ]
        }
    ],
    "nodes" : [
        {
            "mesh" : 0,
            "name" : "Suzanne"
        }
    ],
    "meshes" : [
        {
            "name" : "Suzanne.001",
            "primitives" : [
                {
                    "attributes" : {
                        "POSITION" : 0,
                        "NORMAL" : 1,
                        "TEXCOORD_0" : 2
                    },
                    "indices" : 3
                }
            ]
        }
    ],
    "accessors" : [
        {
            "bufferView" : 0,
            "componentType" : 5126,
            "count" : 3000,
            "max" : [
                3.6131725311279297,
                2.5594184398651123,
                2.2408218383789062
            ],
            "min" : [
                -3.6131725311279297,
                -2.6445746421813965,
                -2.120774984359741
            ],
            "type" : "VEC3"
        },
        {
            "bufferView" : 1,
            "componentType" : 5126,
            "count" : 3000,
            "type" : "VEC3"
        },
        {
            "bufferView" : 2,
            "componentType" : 5126,
            "count" : 3000,
            "type" : "VEC2"
        },
        {
            "bufferView" : 3,
            "componentType" : 5123,
            "count" : 11808,
            "type" : "SCALAR"
        }
    ],
    "bufferViews" : [
        {
            "buffer" : 0,
            "byteLength" : 36000,
            "byteOffset" : 0
        },
        {
            "buffer" : 0,
            "byteLength" : 36000,
            "byteOffset" : 36000
        },
        {
            "buffer" : 0,
            "byteLength" : 24000,
            "byteOffset" : 72000
        },
        {
            "buffer" : 0,
            "byteLength" : 23616,
            "byteOffset" : 96000
        }
    ],
    "buffers" : [
        {
            "byteLength" : 119616,
            "uri" : "data:application/octet-stream;base64,"
        }
    ]
}
